<?xml version="1.0" encoding="UTF-8"?>
<svg id="Layer_1" data-name="Layer 1" xmlns="http://www.w3.org/2000/svg" viewBox="0 0 462.37 59.84">
  <defs>
    <style>
      .cls-1 {
        fill: #cfb690;
      }
    </style>
  </defs>
  <path class="cls-1" d="M28.18,0h2.72s28.18,59.84,28.18,59.84h-3.14s-8.06-17.31-8.06-17.31H11.12S2.97,59.84,2.97,59.84H0S28.18,0,28.18,0ZM46.59,39.89L29.45,3.4,12.39,39.89h34.2Z"/>
  <path class="cls-1" d="M109.46.43h24.53c7.55,0,13.32,2.12,16.97,5.69,2.72,2.8,4.33,6.62,4.33,11.03v.17c0,10.02-7.72,15.87-18.67,16.8l19.78,25.72h-3.65s-19.35-25.37-19.35-25.37h-21.05s0,25.37,0,25.37h-2.88s0-59.41,0-59.41ZM133.22,31.83c12.22,0,19.18-5.94,19.18-14.34v-.17c0-8.91-6.87-14.26-18.59-14.26h-21.47s0,28.77,0,28.77h20.88Z"/>
  <path class="cls-1" d="M209.07.43h2.88s0,39.72,0,39.72L251.76.43h3.99s-25.89,25.55-25.89,25.55l26.9,33.86h-3.73s-25.21-31.91-25.21-31.91l-15.87,15.7v16.21s-2.88,0-2.88,0V.43Z"/>
  <path class="cls-1" d="M330.16,0h2.72s28.18,59.84,28.18,59.84h-3.14s-8.06-17.31-8.06-17.31h-36.75s-8.15,17.31-8.15,17.31h-2.97S330.16,0,330.16,0ZM348.58,39.89l-17.14-36.49-17.06,36.49h34.2Z"/>
  <path class="cls-1" d="M411.44.43h19.35c18.67,0,31.57,12.9,31.57,29.62v.17c0,16.72-12.9,29.62-31.57,29.62h-19.35s0-59.41,0-59.41ZM430.88,57.21c17.06,0,28.52-11.88,28.52-26.91v-.17c0-15.03-11.46-27.07-28.6-27.07h-16.47s0,54.15,0,54.15h16.55Z"/>
</svg>