<?xml version="1.0" encoding="UTF-8"?>
<svg id="Layer_1" xmlns="http://www.w3.org/2000/svg" version="1.1" viewBox="0 0 140 140">
  <!-- Generator: Adobe Illustrator 29.8.1, SVG Export Plug-In . SVG Version: 2.1.1 Build 2)  -->
  <defs>
    <style>
      .st0 {
        fill: #554e2e;
      }

      .st1 {
        fill: #cfb690;
      }
    </style>
  </defs>
  <rect class="st0" width="140" height="140" rx="32.6" ry="32.6"/>
  <g>
    <polygon class="st1" points="31.1 41.6 31.1 41.6 31.1 41.6 31.1 41.6"/>
    <path class="st1" d="M44.4,48.1c.9-.8,2.1-1.2,3.4-1.2h7c.1-.7.4-1.3.7-1.8h-7.7c-1.8,0-3.2,1.3-3.4,3.1Z"/>
    <path class="st1" d="M44.4,55.7c.9-.8,2.1-1.2,3.4-1.2h7c.1-.7.4-1.3.7-1.8h-7.7c-1.8,0-3.2,1.3-3.4,3.1Z"/>
    <path class="st1" d="M32.1,45c.9-.8,2.1-1.2,3.4-1.2h7c.1-.7.4-1.3.7-1.8h-7.7c-1.8,0-3.2,1.3-3.4,3.1Z"/>
    <path class="st1" d="M32.1,60.1c.9-.8,2.1-1.2,3.4-1.2h7c.1-.7.4-1.3.7-1.8h-7.7c-1.8,0-3.2,1.3-3.4,3.1Z"/>
    <path class="st1" d="M42.5,36.2c.1-.7.4-1.3.7-1.8h-7.7c-1.8,0-3.2,1.3-3.4,3.1.9-.8,2.1-1.2,3.4-1.2h7Z"/>
    <path class="st1" d="M32.1,52.5c.9-.8,2.1-1.2,3.4-1.2h7c.1-.7.4-1.3.7-1.8h-7.7c-1.8,0-3.2,1.3-3.4,3.1Z"/>
    <path class="st1" d="M47.1,31.9l5.1,5.7h-4.4c-1.8,0-3.2,1.3-3.4,3.1.9-.8,2.1-1.2,3.4-1.2h6s3,3.4,3,3.4v.5c-.2.2-.2.3-.2.5l.6-.5,4.3,4.8-1.9.2c-1.6.2-2.9,1.5-3,3.1.9-.8,2.1-1.2,3.4-1.2h3.3s15.1,17,15.1,17l-.7.7c-.8.8-1.4,1.6-2,2.6l-.8,1.4-.8-1.4c-.6-1-1.3-1.9-2-2.7-2.5-2.5-5.7-3.8-9.2-3.8h-26v.9c0,2,.8,3.9,2.2,5.4,1.1,1.1,2.4,1.8,3.8,2.1h.6c0,.1.1.7.1.7.3,1.5,1,2.8,2.1,3.8s2.4,1.8,3.8,2.1h.6c0,.1.1.7.1.7.3,1.5,1,2.8,2.1,3.8.7.7,1.5,1.2,2.4,1.6l2.1.9-2.2.9c-3.2,1.2-9.9,1.5-19.1-11l-.4-.5.3-.6c.4-.9.4-1.8,0-2.6-.2-.4-.6-.8-1-1l-4.2-2.4v4.8c0,.5.1,1,.4,1.4.5.9,1.4,1.4,2.4,1.4h0s0,.9,0,.9l.7-.5c8.2,11.2,15,13,19.2,12.5l1.3-.2-.2,1.3c0,.4,0,.8,0,1.2,0,1.5-.6,3-1.7,4-1.1,1.1-2.5,1.7-4,1.7h-.9v12.8s16.1,0,16.1,0v-.9c0-2-.8-3.9-2.2-5.4-1.2-1.2-2.7-2-4.4-2.2v1.9c1.2.2,2.2.7,3.1,1.6.5.5.9,1.1,1.2,1.7l.6,1.4h-12.5s0-9.1,0-9.1l.7-.2c1.4-.3,2.7-1,3.7-2,1.4-1.4,2.2-3.3,2.2-5.4s.6-3,1.7-4c1.1-1.1,2.5-1.7,4-1.7h19.6s1.3,6.4,1.3,6.4h-16.2s0,17.9,0,17.9h16.1v-.9c0-2-.8-3.9-2.2-5.4-1-1-2.3-1.7-3.7-2l-.7-.2v-2.8h-1.9v4.6h.9c1.5,0,3,.6,4,1.7.5.5.9,1.1,1.2,1.7l.6,1.4h-12.5s0-14.1,0-14.1h14.7s3.3,16,3.3,16h7.4s16.1,0,16.1,0v-.9c0-2-.8-3.9-2.2-5.4h0c-1-1-2.2-1.7-3.5-2l-.8-.2.7-8.8-9.5-10.6,7.5-8.6-11.8-13.2v3.7s-3.2,0-3.2,0c-2.2,0-4.4.6-6.3,1.6l-.7.4L48,30h-.2c-1.8,0-3.2,1.3-3.4,3.1.6-.5,1.4-.9,2.2-1.1h.6ZM57.7,83.9c-1.5,0-3-.6-4-1.7-.5-.5-.9-1.1-1.2-1.7l-.6-1.4h16.1v-1.9h-16.9c-1.5,0-3-.6-4-1.7s-.9-1.1-1.2-1.7l-.6-1.4h16.1v-1.9h-16.9c-1.5,0-3-.6-4-1.7-.5-.5-.9-1.1-1.2-1.7l-.6-1.4h24.2c3,0,5.8,1.2,7.9,3.3,2.1,2.1,3.3,4.9,3.3,7.9v.4s5.9,6.6,5.9,6.6h-22.1ZM93.6,108.1h-5.9s-4.2-20.1-4.2-20.1l10.1,11.3v8.8ZM102,93.4l-.8,10h1c1.5,0,3,.6,4,1.7.5.5.9,1.1,1.2,1.7l.6,1.4h-12.5s0-9.5,0-9.5l-2.5-2.8,1-11.4,8,9ZM82.5,66.8c1.4-.6,2.9-1,4.5-1h5.6s6.8,7.7,6.8,7.7l-6.2,7.2-11.9-13.4,1.2-.5ZM79.7,68.4l12.5,14-1,11.4-15.4-17.3v-.4c.2-2.6,1.3-5.1,3.2-7l.7-.7Z"/>
  </g>
</svg>