<?xml version="1.0" encoding="UTF-8"?>
<svg id="Layer_2" data-name="Layer 2" xmlns="http://www.w3.org/2000/svg" viewBox="0 0 96.48 97.12">
  <defs>
    <style>
      .cls-1 {
        fill: #cfb690;
      }
    </style>
  </defs>
  <g id="Layer_1-2" data-name="Layer 1">
    <g>
      <polygon class="cls-1" points="1.09 14.07 1.09 14.07 1.09 14.07 1.09 14.07"/>
      <path class="cls-1" d="M17.14,22.02c1.13-.93,2.57-1.49,4.14-1.49h8.47c.15-.79.45-1.55.88-2.23h-9.34c-2.15,0-3.92,1.64-4.14,3.73Z"/>
      <path class="cls-1" d="M17.14,31.17c1.13-.93,2.57-1.49,4.14-1.49h8.46c.15-.81.44-1.56.86-2.23h-9.32c-2.15,0-3.92,1.64-4.14,3.73Z"/>
      <path class="cls-1" d="M2.28,18.21c1.13-.93,2.57-1.49,4.14-1.49h8.46c.15-.81.44-1.56.86-2.23H6.42c-2.15,0-3.92,1.64-4.14,3.73Z"/>
      <path class="cls-1" d="M2.28,36.5c1.13-.93,2.57-1.49,4.14-1.49h8.46c.15-.81.44-1.56.86-2.23H6.42c-2.15,0-3.92,1.64-4.14,3.73Z"/>
      <path class="cls-1" d="M14.88,7.57c.15-.8.44-1.56.86-2.23H6.42c-2.15,0-3.92,1.64-4.14,3.73,1.13-.93,2.57-1.49,4.14-1.49h8.46Z"/>
      <path class="cls-1" d="M2.28,27.35c1.13-.93,2.57-1.49,4.14-1.49h8.46c.15-.81.44-1.56.86-2.23H6.42c-2.15,0-3.92,1.64-4.14,3.73Z"/>
      <path class="cls-1" d="M20.46,2.26l6.14,6.88h-5.32c-2.15,0-3.92,1.64-4.14,3.73,1.13-.93,2.57-1.49,4.14-1.49h7.31s3.68,4.13,3.68,4.13l-.15.6c-.05.21-.09.42-.11.61l.76-.66,5.2,5.83-2.26.24c-1.94.21-3.49,1.8-3.7,3.7,1.13-.93,2.57-1.49,4.14-1.49h4s18.38,20.61,18.38,20.61l-.89.9c-.91.91-1.74,2-2.44,3.2l-1.01,1.73-1.01-1.73c-.7-1.19-1.53-2.27-2.48-3.22-2.98-2.98-6.94-4.62-11.16-4.62H8v1.14c0,2.46.96,4.77,2.7,6.51,1.28,1.28,2.89,2.15,4.65,2.51l.75.15.16.76c.36,1.76,1.23,3.37,2.51,4.65s2.89,2.15,4.65,2.51l.75.15.16.76c.36,1.76,1.23,3.37,2.51,4.65.82.82,1.79,1.48,2.86,1.94l2.61,1.13-2.65,1.03c-3.84,1.5-11.97,1.77-23.21-13.33l-.45-.6.42-.76c.51-1.04.47-2.22-.09-3.2-.3-.51-.73-.94-1.24-1.24L0,47.03v5.88c0,.59.16,1.18.45,1.69.6,1.05,1.7,1.67,2.94,1.67h.02s.07,1.1.07,1.1l.85-.62c10,13.61,18.16,15.74,23.26,15.12l1.53-.18-.23,1.52c-.08.53-.12.98-.12,1.41,0,1.85-.72,3.59-2.03,4.89-1.31,1.31-3.04,2.03-4.89,2.03h-1.15v15.58s19.58,0,19.58,0v-1.14c0-2.46-.96-4.77-2.7-6.51-1.46-1.46-3.33-2.37-5.34-2.62v2.31c1.4.24,2.7.9,3.72,1.93.61.61,1.1,1.32,1.44,2.11l.72,1.64h-15.14s0-11.03,0-11.03l.91-.21c1.69-.38,3.23-1.24,4.46-2.47,1.74-1.74,2.7-4.05,2.7-6.51,0-1.85.72-3.59,2.03-4.89,1.31-1.31,3.04-2.03,4.89-2.03h23.81s1.61,7.76,1.61,7.76h-19.7s0,21.66,0,21.66h19.58v-1.14c0-2.46-.96-4.77-2.7-6.51-1.23-1.23-2.77-2.08-4.46-2.47l-.91-.21v-3.36h-2.29v5.63h1.15c1.85,0,3.59.72,4.89,2.03.61.61,1.1,1.32,1.44,2.11l.72,1.64h-15.14s0-17.08,0-17.08h17.88s4.02,19.37,4.02,19.37h9.01s19.57,0,19.57,0v-1.14c0-2.46-.96-4.77-2.7-6.51h0c-1.19-1.19-2.68-2.03-4.3-2.43l-.97-.24.9-10.65-11.51-12.9,9.07-10.45-14.32-16.05v4.47s-3.84,0-3.84,0c-2.66,0-5.29.68-7.61,1.96l-.82.45L21.5,0h-.22c-2.15,0-3.93,1.64-4.14,3.73.75-.62,1.64-1.07,2.64-1.31l.68-.16ZM33.34,65.4c-1.85,0-3.59-.72-4.89-2.03-.6-.6-1.08-1.31-1.43-2.11l-.72-1.64h19.55v-2.29h-20.57c-1.85,0-3.59-.72-4.89-2.03-.6-.6-1.08-1.31-1.44-2.11l-.72-1.64h19.55v-2.29h-20.57c-1.85,0-3.59-.72-4.89-2.03-.61-.61-1.1-1.32-1.44-2.11l-.72-1.64h29.39c3.61,0,6.99,1.4,9.54,3.95,2.55,2.55,3.95,5.94,3.95,9.54v.43s7.12,7.98,7.12,7.98h-26.82ZM76.91,94.84h-7.16s-5.06-24.35-5.06-24.35l12.22,13.7v10.66ZM87.05,76.92l-1.03,12.13h1.25c1.85,0,3.59.72,4.89,2.03.61.61,1.1,1.32,1.44,2.11l.72,1.64h-15.15s0-11.53,0-11.53l-3.06-3.43,1.18-13.88,9.75,10.93ZM63.37,44.65c1.73-.77,3.56-1.15,5.45-1.15h6.81s8.31,9.32,8.31,9.32l-7.56,8.72-14.47-16.23,1.47-.65ZM60.06,46.66l15.15,16.98-1.18,13.88-18.69-20.95.03-.49c.21-3.21,1.57-6.24,3.81-8.53l.87-.89Z"/>
    </g>
  </g>
</svg>