<?xml version="1.0" encoding="UTF-8"?>
<svg id="Layer_2" xmlns="http://www.w3.org/2000/svg" version="1.1" viewBox="0 0 51.2 51.2">
  <!-- Generator: Adobe Illustrator 30.1.0, SVG Export Plug-In . SVG Version: 2.1.1 Build 136)  -->
  <defs>
    <style>
      .st0 {
        stroke: #000;
        stroke-miterlimit: 10;
      }

      .st0, .st1 {
        fill: none;
      }
    </style>
  </defs>
  <g>
    <path class="st1" d="M23.2,27.5c-1.6,0-3,1.3-3,3s.5,1.9,1.3,2.4c-.2.3-.4,0-.4,1.1s.9,2,2,2,2-.9,2-2-.2-.8-.4-1.1c.8-.5,1.3-.8,1.3-2.4s-1.3-3-3-3Z"/>
    <path class="st1" d="M31.3,16.2c0-4.4-3.6-8-8-8s-8,3.6-8,8v3.2h15.9v-3.2Z"/>
    <path d="M36.5,32.3c.9,0,1.7.2,2.4.4v-7.9c0-2.4-1.6-4.4-3.8-5.1v-3.5c0-6.5-5.3-11.7-11.7-11.7s-11.7,5.3-11.7,11.7v3.4c-2.3.6-4.1,2.7-4.1,5.2v11.3c0,3,2.3,5.3,5.3,5.3h16.5c-.1-.6-.2-1.2-.2-1.8,0-4,3.3-7.3,7.3-7.3ZM15.4,16.2c0-4.4,3.6-8,8-8s8,3.6,8,8v3.2h-15.9v-3.2ZM24.9,32.9c.2.3.4.7.4,1.1,0,1.1-.9,2-2,2s-2-.9-2-2,.2-.8.4-1.1c-.8-.5-1.3-1.4-1.3-2.4,0-1.6,1.3-3,3-3s3,1.3,3,3-.5,1.9-1.3,2.4Z"/>
    <path class="st0" d="M39.1,36.1"/>
  </g>
  <polygon points="35.3 42.8 32.4 39.9 33.5 38.8 35.3 40.6 39.5 36.5 40.6 37.6 35.3 42.8"/>
  <circle class="st0" cx="36.5" cy="39.6" r="7.1"/>
</svg>