<?xml version="1.0" encoding="UTF-8"?>
<svg id="Layer_2" xmlns="http://www.w3.org/2000/svg" version="1.1" viewBox="0 0 51.2 51.2">
  <!-- Generator: Adobe Illustrator 30.1.0, SVG Export Plug-In . SVG Version: 2.1.1 Build 136)  -->
  <path d="M44.8,8.7H6.3C2.8,8.7,0,11.5,0,15v21.1C0,39.7,2.8,42.5,6.3,42.5h38.5c3.5,0,6.3-2.8,6.3-6.3V15c0-3.5-2.8-6.3-6.3-6.3ZM11.8,17.6c1.7,0,3.1,1.4,3.1,3.1s-1.4,3.1-3.1,3.1-3.1-1.4-3.1-3.1,1.4-3.1,3.1-3.1ZM16.8,31c-1.1,1.6-2.9,2.6-5,2.6s-3.9-1-5-2.6c0-.1,0-.2,0-.3,0-2.8,2.3-5,5-5s5,2.3,5,5,0,.2,0,.3ZM44.7,30.8c0,.6-.4,1-1,1h-20.8c-.6,0-1-.4-1-1v-.3c0-.6.4-1,1-1h20.8c.6,0,1,.4,1,1v.3ZM44.7,25.4c0,.6-.4,1-1,1h-20.8c-.6,0-1-.4-1-1v-.3c0-.6.4-1,1-1h20.8c.6,0,1,.4,1,1v.3ZM44.7,20.3c0,.6-.4,1-1,1h-20.8c-.6,0-1-.4-1-1v-.3c0-.6.4-1,1-1h20.8c.6,0,1,.4,1,1v.3Z"/>
</svg>