<?xml version="1.0" encoding="UTF-8"?>
<svg id="Layer_2" data-name="Layer 2" xmlns="http://www.w3.org/2000/svg" viewBox="0 0 51.19 51.19">
  <defs>
    <style>
      .cls-1 {
        fill: #cfb690;
      }
    </style>
  </defs>
  <g id="Layer_1-2" data-name="Layer 1">
    <g>
      <path class="cls-1" d="M25.6,0C11.46,0,0,11.46,0,25.6s11.46,25.6,25.6,25.6,25.6-11.46,25.6-25.6S39.73,0,25.6,0ZM40.4,31.7c0,2.03-1.64,3.67-3.67,3.67H14.46c-2.03,0-3.67-1.64-3.67-3.67v-12.21c0-2.03,1.64-3.67,3.67-3.67h22.27c2.03,0,3.67,1.64,3.67,3.67v12.21Z"/>
      <rect class="cls-1" x="23.44" y="21.76" width="13.21" height="1.35" rx=".58" ry=".58"/>
      <rect class="cls-1" x="23.44" y="24.73" width="13.21" height="1.35" rx=".58" ry=".58"/>
      <rect class="cls-1" x="23.44" y="27.82" width="13.21" height="1.35" rx=".58" ry=".58"/>
      <circle class="cls-1" cx="17.64" cy="22.75" r="1.8"/>
      <path class="cls-1" d="M17.64,25.64c-1.6,0-2.91,1.3-2.91,2.91,0,.06.01.12.02.18.63.92,1.69,1.52,2.89,1.52s2.26-.6,2.89-1.52c0-.06.02-.12.02-.18,0-1.6-1.3-2.91-2.91-2.91Z"/>
    </g>
  </g>
</svg>