<?xml version="1.0" encoding="UTF-8"?>
<svg id="Layer_1" data-name="Layer 1" xmlns="http://www.w3.org/2000/svg" viewBox="0 0 100 100">
  <defs>
    <style>
      .cls-1 {
        fill: #cfb690;
      }
    </style>
  </defs>
  <path class="cls-1" d="M50,0C22.39,0,0,22.39,0,50s22.39,50,50,50,50-22.39,50-50S77.61,0,50,0ZM77.48,44.28c-1.87,0-3.7-.25-5.51-.66-3.12-.71-6-1.98-8.66-3.73-.14-.09-.29-.29-.43-.22-.19.09-.09.33-.09.5,0,7.17.03,14.34-.01,21.52-.03,5.01-1.62,9.5-4.91,13.32-3.49,4.06-7.92,6.41-13.23,7.06-4.1.5-7.99-.24-11.68-2.06-.6-.3-1.17-.64-1.7-1.04-.17-.15-.34-.3-.5-.45,0,0,0,0,0,0-.4-.17-.72-.46-1.06-.73-3.29-2.61-5.62-5.9-6.89-9.92-.44-1.4-.72-2.83-.86-4.29-.1-1.06-.11-2.12-.04-3.17.16-2.43.73-4.76,1.74-6.99,1.05-2.32,2.48-4.39,4.3-6.17,2.12-2.08,4.57-3.63,7.37-4.64,1.75-.63,3.56-1.01,5.42-1.15,1.35-.1,2.69-.07,4.03.09.18.02.29.06.28.27-.01.74-.01,1.49-.02,2.23.01.01.11,5.66.11,8.24,0,.09,0,.18,0,.27-.01.26-.14.35-.39.28-.71-.2-1.43-.29-2.16-.33-1.13-.06-2.25.1-3.31.49-3.55,1.31-5.71,3.86-6.16,7.6-.44,3.7,1.01,6.65,4.09,8.78.26.18.52.34.76.55.06.05.12.11.17.16.71.28,1.43.57,2.19.72,2.41.48,4.68.11,6.78-1.18,2.42-1.49,3.84-3.67,4.34-6.46.09-.53.11-1.06.11-1.6,0-14.4,0-28.8,0-43.2,0-.67-.09-.59.57-.59,3.32,0,6.64,0,9.96,0,.08,0,.16,0,.24,0,.34,0,.35,0,.34.35,0,.77.32,2.58.34,2.72,1.44,7.28,9.92,11.73,12.54,12.13.72.11,1.44.2,2.18.19.3,0,.31,0,.31.3,0,.68.13,7.64.13,10.19,0,.58-.08.61-.67.61Z"/>
</svg>