<?xml version="1.0" encoding="UTF-8"?>
<svg id="Layer_2" xmlns="http://www.w3.org/2000/svg" version="1.1" viewBox="0 0 51.2 51.2">
  <!-- Generator: Adobe Illustrator 30.2.1, SVG Export Plug-In . SVG Version: 2.1.1 Build 1)  -->
  <defs>
    <style>
      .st0 {
        fill: #37383d;
      }
    </style>
  </defs>
  <path class="st0" d="M25.1,9.7L7.7,23.5c-.6.5-.3,1.5.5,1.5h2.8v15.4c0,.7.6,1.2,1.2,1.2h8c.7,0,1.2-.6,1.2-1.2v-9.9c0-.7.6-1.2,1.2-1.2h5.5c.7,0,1.2.6,1.2,1.2v9.9c0,.7.6,1.2,1.2,1.2h8.3c.7,0,1.2-.6,1.2-1.2v-15.4h2.8c.8,0,1.2-1,.5-1.5l-17.4-13.8c-.3-.2-.8-.2-1.1,0Z"/>
</svg>