<?xml version="1.0" encoding="UTF-8"?>
<svg id="Layer_1" data-name="Layer 1" xmlns="http://www.w3.org/2000/svg" viewBox="0 0 100 100">
  <defs>
    <style>
      .cls-1 {
        fill: #cfb690;
      }
    </style>
  </defs>
  <path class="cls-1" d="M74.54,31.43c-.57-1.47-1.25-2.52-2.35-3.62-1.1-1.1-2.15-1.78-3.62-2.35-1.11-.43-2.78-.94-5.85-1.08-3.32-.15-4.32-.18-12.72-.18s-9.4.03-12.72.18c-3.07.14-4.74.65-5.85,1.08-1.47.57-2.52,1.25-3.62,2.35-1.1,1.1-1.78,2.15-2.35,3.62-.43,1.11-.94,2.78-1.08,5.85-.15,3.32-.18,4.32-.18,12.72s.03,9.4.18,12.72c.14,3.07.65,4.74,1.08,5.85.57,1.47,1.25,2.52,2.35,3.62,1.1,1.1,2.15,1.78,3.62,2.35,1.11.43,2.78.94,5.85,1.08,3.32.15,4.31.18,12.72.18s9.4-.03,12.72-.18c3.07-.14,4.74-.65,5.85-1.08,1.47-.57,2.52-1.25,3.62-2.35,1.1-1.1,1.78-2.15,2.35-3.62.43-1.11.94-2.78,1.08-5.85.15-3.32.18-4.32.18-12.72s-.03-9.4-.18-12.72c-.14-3.07-.65-4.74-1.08-5.85ZM50,66.17c-8.93,0-16.17-7.24-16.17-16.17s7.24-16.17,16.17-16.17,16.17,7.24,16.17,16.17-7.24,16.17-16.17,16.17ZM66.8,36.97c-2.09,0-3.78-1.69-3.78-3.78s1.69-3.78,3.78-3.78,3.78,1.69,3.78,3.78-1.69,3.78-3.78,3.78Z"/>
  <path class="cls-1" d="M50,0C22.39,0,0,22.39,0,50s22.39,50,50,50,50-22.39,50-50S77.61,0,50,0ZM81.29,62.98c-.15,3.35-.69,5.64-1.46,7.64-.8,2.07-1.88,3.83-3.63,5.58-1.75,1.75-3.51,2.83-5.58,3.63-2,.78-4.29,1.31-7.64,1.46-3.36.15-4.43.19-12.98.19s-9.62-.04-12.98-.19c-3.35-.15-5.64-.69-7.64-1.46-2.07-.8-3.83-1.88-5.58-3.63-1.75-1.75-2.83-3.51-3.63-5.58-.78-2-1.31-4.29-1.46-7.64-.15-3.36-.19-4.43-.19-12.98s.04-9.62.19-12.98c.15-3.35.69-5.64,1.46-7.64.8-2.07,1.88-3.83,3.63-5.58,1.75-1.75,3.51-2.83,5.58-3.63,2-.78,4.29-1.31,7.64-1.46,3.36-.15,4.43-.19,12.98-.19s9.62.04,12.98.19c3.35.15,5.64.69,7.64,1.46,2.07.8,3.83,1.88,5.58,3.63,1.75,1.75,2.83,3.51,3.63,5.58.78,2,1.31,4.29,1.46,7.64.15,3.36.19,4.43.19,12.98s-.04,9.62-.19,12.98Z"/>
  <circle class="cls-1" cx="50" cy="50" r="10.49"/>
</svg>