<?xml version="1.0" encoding="UTF-8"?>
<svg id="Layer_2" data-name="Layer 2" xmlns="http://www.w3.org/2000/svg" viewBox="0 0 51.19 51.19">
  <defs>
    <style>
      .cls-1 {
        fill: #cfb690;
      }
    </style>
  </defs>
  <g id="Layer_1-2" data-name="Layer 1">
    <g>
      <polygon class="cls-1" points="34.34 18.83 16.85 18.83 25.6 24.16 34.34 18.83"/>
      <path class="cls-1" d="M14.31,20.15v11.68c0,.29.24.54.53.54h21.5c.29,0,.53-.24.53-.54v-11.68l-11.28,6.88-11.28-6.88Z"/>
      <path class="cls-1" d="M25.6,0C11.46,0,0,11.46,0,25.6s11.46,25.6,25.6,25.6,25.6-11.46,25.6-25.6S39.73,0,25.6,0ZM39.33,31.83c0,1.65-1.34,2.99-2.99,2.99H14.85c-1.65,0-2.99-1.34-2.99-2.99v-12.47c0-1.65,1.34-2.99,2.99-2.99h21.5c1.65,0,2.99,1.34,2.99,2.99v12.47Z"/>
    </g>
  </g>
</svg>