<?xml version="1.0" encoding="UTF-8"?>
<svg id="Layer_2" xmlns="http://www.w3.org/2000/svg" version="1.1" viewBox="0 0 51.2 51.2">
  <!-- Generator: Adobe Illustrator 30.1.0, SVG Export Plug-In . SVG Version: 2.1.1 Build 136)  -->
  <path d="M41,38.5v-11.1c0-2.4-1.6-4.3-3.7-5v-3.4c0-6.4-5.2-11.5-11.5-11.5s-11.5,5.2-11.5,11.5v3.3c-2.3.6-4,2.6-4,5.1v11.1c0,2.9,2.3,5.2,5.2,5.2h20.4c2.9,0,5.2-2.3,5.2-5.2h0ZM27.2,35.3c.2.3.4.7.4,1.1,0,1.1-.9,2-2,2s-2-.9-2-2,.2-.8.4-1.1c-.8-.5-1.3-1.4-1.3-2.4,0-1.6,1.3-2.9,2.9-2.9s2.9,1.3,2.9,2.9-.5,1.9-1.3,2.4ZM33.5,22.1h-15.6v-3.1c0-4.3,3.5-7.8,7.8-7.8s7.8,3.5,7.8,7.8v3.1Z"/>
</svg>