<?xml version="1.0" encoding="UTF-8"?>
<svg id="Layer_2" data-name="Layer 2" xmlns="http://www.w3.org/2000/svg" viewBox="0 0 51.19 51.19">
  <defs>
    <style>
      .cls-1 {
        fill: #cfb690;
      }
    </style>
  </defs>
  <g id="Layer_1-2" data-name="Layer 1">
    <g>
      <path class="cls-1" d="M25.6,28.75c-1.11,0-2.01.9-2.01,2.01,0,.7.35,1.31.89,1.67-.16.23-.28.49-.28.8,0,.77.63,1.4,1.4,1.4s1.4-.63,1.4-1.4c0-.3-.12-.57-.28-.8.54-.36.89-.97.89-1.67,0-1.11-.9-2.01-2.01-2.01Z"/>
      <path class="cls-1" d="M25.68,15.49c-3.02,0-5.48,2.46-5.48,5.48v2.19h10.96v-2.19c0-3.02-2.46-5.48-5.48-5.48Z"/>
      <path class="cls-1" d="M25.6,0C11.46,0,0,11.46,0,25.6s11.46,25.6,25.6,25.6,25.6-11.46,25.6-25.6S39.73,0,25.6,0ZM36.44,34.67c0,2.03-1.65,3.68-3.68,3.68h-14.34c-2.03,0-3.68-1.65-3.68-3.68v-7.83c0-1.72,1.19-3.16,2.79-3.56v-2.31c0-4.48,3.65-8.13,8.13-8.13s8.13,3.65,8.13,8.13v2.36c1.52.45,2.63,1.84,2.63,3.51v7.83Z"/>
    </g>
  </g>
</svg>