<?xml version="1.0" encoding="UTF-8"?>
<svg id="Layer_2" xmlns="http://www.w3.org/2000/svg" version="1.1" viewBox="0 0 51.2 51.2">
  <!-- Generator: Adobe Illustrator 30.1.0, SVG Export Plug-In . SVG Version: 2.1.1 Build 136)  -->
  <path d="M37.8,0H13.4c-2,0-3.6,1.6-3.6,3.6v44c0,2,1.6,3.6,3.6,3.6h24.3c2,0,3.6-1.6,3.6-3.6V3.6c0-2-1.6-3.6-3.6-3.6ZM21.7,1.7h7.8c.7,0,1.3.6,1.3,1.3s-.6,1.3-1.3,1.3h-7.8c-.7,0-1.3-.6-1.3-1.3s.6-1.3,1.3-1.3ZM33.1,49.7h-15c-.2,0-.3-.1-.3-.3s.1-.3.3-.3h15c.2,0,.3.1.3.3s-.1.3-.3.3Z"/>
</svg>