<?xml version="1.0" encoding="UTF-8"?>
<svg id="Layer_2" data-name="Layer 2" xmlns="http://www.w3.org/2000/svg" viewBox="0 0 51.19 51.19">
  <defs>
    <style>
      .cls-1 {
        fill: #cfb690;
      }
    </style>
  </defs>
  <g id="Layer_1-2" data-name="Layer 1">
    <path class="cls-1" d="M25.6,0C11.46,0,0,11.46,0,25.6s11.46,25.6,25.6,25.6,25.6-11.46,25.6-25.6S39.73,0,25.6,0ZM25.6,12.07c3.8,0,6.87,3.08,6.87,6.87s-3.08,6.87-6.87,6.87-6.87-3.08-6.87-6.87,3.08-6.87,6.87-6.87ZM25.6,41.37c-4.8,0-9.15-1.91-12.35-5,2.26-4.54,6.93-7.68,12.35-7.68s10.09,3.13,12.35,7.68c-3.2,3.09-7.55,5-12.35,5Z"/>
  </g>
</svg>